<svg id="line" xmlns="http://www.w3.org/2000/svg" fill="white" viewBox="0 0 64 64"><title>1</title><path d="M10.11426,30.20313a3.28378,3.28378,0,0,0,3.28027-3.27979,3.23951,3.23951,0,0,0-.19775-1.08124l5.98108-4.53357a3.25848,3.25848,0,0,0,5.06048-3.44275L29.86371,14.449a3.21709,3.21709,0,0,0,4.273-.00037l5.62494,3.41711a3.27955,3.27955,0,1,0,6.08587-.728L52.395,10.59033a3.23879,3.23879,0,0,0,1.49072.375,3.27954,3.27954,0,1,0-3.28027-3.27978,3.23716,3.23716,0,0,0,.3753,1.4909l-6.54736,6.54737a3.19029,3.19029,0,0,0-3.62707.4364L35.181,12.74286a3.27953,3.27953,0,1,0-6.36176.00049l-5.62548,3.41687a3.25024,3.25024,0,0,0-2.13611-.81159,3.28377,3.28377,0,0,0-3.28028,3.27979A3.24012,3.24012,0,0,0,17.97522,19.71l-5.981,4.53345a3.27708,3.27708,0,1,0-1.88,5.95972ZM53.88574,6.40625a1.27954,1.27954,0,1,1-1.28027,1.2793A1.28086,1.28086,0,0,1,53.88574,6.40625ZM42.94238,17.34863a1.27979,1.27979,0,1,1-1.27929,1.27979A1.28148,1.28148,0,0,1,42.94238,17.34863ZM32,10.70117A1.27979,1.27979,0,1,1,30.7207,11.981,1.28128,1.28128,0,0,1,32,10.70117ZM21.05762,17.34863a1.27979,1.27979,0,1,1-1.28028,1.27979A1.28127,1.28127,0,0,1,21.05762,17.34863ZM10.11426,25.64355A1.27979,1.27979,0,1,1,8.835,26.92334,1.28148,1.28148,0,0,1,10.11426,25.64355Z"/><path d="M58.5332,53.67511V18.59375a.99973.99973,0,0,0-1-1H50.2373a.99974.99974,0,0,0-1,1v35H47.58984V30.64355a.99974.99974,0,0,0-1-1H39.29492a.99974.99974,0,0,0-1,1v22.9502H36.64746v-28.624a.99973.99973,0,0,0-1-1H28.35254a.99973.99973,0,0,0-1,1v28.624H25.70508V30.64355a.99974.99974,0,0,0-1-1H17.41016a.99974.99974,0,0,0-1,1v22.9502H14.7627v-15a.99974.99974,0,0,0-1-1H6.4668a.99973.99973,0,0,0-1,1V53.67511A1.99694,1.99694,0,0,0,4,55.59375v2a2.00229,2.00229,0,0,0,2,2H58a2.00229,2.00229,0,0,0,2-2v-2A1.99694,1.99694,0,0,0,58.5332,53.67511ZM51.2373,19.59375h5.2959v34H51.2373ZM40.29492,31.64355h5.29492v21.9502H40.29492ZM29.35254,25.96973h5.29492v27.624H29.35254ZM18.41016,31.64355h5.29492v21.9502H18.41016ZM7.4668,39.59375h5.2959v14H7.4668ZM6,57.59375v-2H58l.002,2Z"/></svg>